<svg width="60" height="41" viewBox="0 0 60 41" fill="none" xmlns="http://www.w3.org/2000/svg">
<path d="M0 0H59.9999V40.2715H0V0Z" fill="#D80027"/>
<path d="M0 3.0979H59.9999V6.19572H0V3.0979Z" fill="white"/>
<path d="M0 9.29358H59.9999V12.3914H0V9.29358Z" fill="white"/>
<path d="M0 15.489H59.9999V18.5868H0V15.489Z" fill="white"/>
<path d="M0 21.541H59.9998V24.8189H0V21.541Z" fill="white"/>
<path d="M0 27.8804H59.9999V30.9782H0V27.8804Z" fill="white"/>
<path d="M0 34.076H59.9999V37.1738H0V34.076Z" fill="white"/>
<path d="M0 0.00012207H24.4285V21.5407H0V0.00012207Z" fill="#3C3B6E"/>
<path d="M1.81277 1.05078L2.03718 1.82225L2.76851 1.82053L2.1759 2.2955L2.40336 3.06587L1.81268 2.58796L1.22195 3.0658L1.4495 2.29545L0.856934 1.82041L1.58826 1.8222L1.81277 1.05078Z" fill="white"/>
<path d="M5.97341 1.0509L6.19783 1.82237L6.92915 1.82065L6.33654 2.29562L6.564 3.06599L5.97332 2.58808L5.3826 3.06592L5.61015 2.29558L5.01758 1.82053L5.7489 1.82233L5.97341 1.0509Z" fill="white"/>
<path d="M10.1336 1.0509L10.358 1.82237L11.0893 1.82065L10.4967 2.29562L10.7242 3.06599L10.1335 2.58808L9.54276 3.06592L9.77031 2.29558L9.17773 1.82053L9.90906 1.82233L10.1336 1.0509Z" fill="white"/>
<path d="M14.2942 1.0509L14.5186 1.82237L15.25 1.82065L14.6573 2.29562L14.8848 3.06599L14.2941 2.58808L13.7034 3.06592L13.9309 2.29558L13.3384 1.82053L14.0697 1.82233L14.2942 1.0509Z" fill="white"/>
<path d="M18.4549 1.0509L18.6793 1.82237L19.4106 1.82065L18.818 2.29562L19.0454 3.06599L18.4548 2.58808L17.864 3.06592L18.0916 2.29558L17.499 1.82053L18.2303 1.82233L18.4549 1.0509Z" fill="white"/>
<path d="M22.6155 1.0509L22.8399 1.82237L23.5712 1.82065L22.9786 2.29562L23.2061 3.06599L22.6154 2.58808L22.0247 3.06592L22.2522 2.29558L21.6597 1.82053L22.391 1.82233L22.6155 1.0509Z" fill="white"/>
<path d="M1.81277 5.43555L2.03718 6.20701L2.76851 6.20529L2.1759 6.68026L2.40336 7.45062L1.81268 6.97272L1.22195 7.45055L1.4495 6.68021L0.856934 6.20517L1.58826 6.20697L1.81277 5.43555Z" fill="white"/>
<path d="M5.9739 5.43555L6.19832 6.20701L6.92964 6.20529L6.33703 6.68027L6.56449 7.45063L5.97381 6.97273L5.38309 7.45056L5.61064 6.68022L5.01807 6.20517L5.74939 6.20697L5.9739 5.43555Z" fill="white"/>
<path d="M10.1341 5.43555L10.3585 6.20701L11.0898 6.20529L10.4972 6.68027L10.7246 7.45063L10.134 6.97273L9.54324 7.45056L9.77079 6.68022L9.17822 6.20517L9.90955 6.20697L10.1341 5.43555Z" fill="white"/>
<path d="M14.2942 5.43555L14.5186 6.20701L15.25 6.20529L14.6573 6.68027L14.8848 7.45063L14.2941 6.97273L13.7034 7.45056L13.9309 6.68022L13.3384 6.20517L14.0697 6.20697L14.2942 5.43555Z" fill="white"/>
<path d="M18.4549 5.43555L18.6793 6.20701L19.4106 6.20529L18.818 6.68027L19.0454 7.45063L18.4548 6.97273L17.864 7.45056L18.0916 6.68022L17.499 6.20517L18.2303 6.20697L18.4549 5.43555Z" fill="white"/>
<path d="M22.6155 5.43555L22.8399 6.20701L23.5712 6.20529L22.9786 6.68027L23.2061 7.45063L22.6154 6.97273L22.0247 7.45056L22.2522 6.68022L21.6597 6.20517L22.391 6.20697L22.6155 5.43555Z" fill="white"/>
<path d="M1.81277 9.81934L2.03718 10.5908L2.76851 10.5891L2.1759 11.0641L2.40336 11.8344L1.81268 11.3565L1.22195 11.8343L1.4495 11.064L0.856934 10.589L1.58826 10.5908L1.81277 9.81934Z" fill="white"/>
<path d="M5.9739 9.81934L6.19832 10.5908L6.92964 10.5891L6.33703 11.064L6.56449 11.8344L5.97381 11.3565L5.38309 11.8343L5.61064 11.064L5.01807 10.589L5.74939 10.5908L5.9739 9.81934Z" fill="white"/>
<path d="M10.1341 9.81934L10.3585 10.5908L11.0898 10.5891L10.4972 11.064L10.7246 11.8344L10.134 11.3565L9.54324 11.8343L9.77079 11.064L9.17822 10.589L9.90955 10.5908L10.1341 9.81934Z" fill="white"/>
<path d="M14.2942 9.81934L14.5186 10.5908L15.25 10.5891L14.6573 11.064L14.8848 11.8344L14.2941 11.3565L13.7034 11.8343L13.9309 11.064L13.3384 10.589L14.0697 10.5908L14.2942 9.81934Z" fill="white"/>
<path d="M18.4549 9.81934L18.6793 10.5908L19.4106 10.5891L18.818 11.064L19.0454 11.8344L18.4548 11.3565L17.864 11.8343L18.0916 11.064L17.499 10.589L18.2303 10.5908L18.4549 9.81934Z" fill="white"/>
<path d="M22.6155 9.81934L22.8399 10.5908L23.5712 10.5891L22.9786 11.064L23.2061 11.8344L22.6154 11.3565L22.0247 11.8343L22.2522 11.064L21.6597 10.589L22.391 10.5908L22.6155 9.81934Z" fill="white"/>
<path d="M1.81277 14.2041L2.03718 14.9756L2.76851 14.9738L2.1759 15.4488L2.40336 16.2192L1.81268 15.7413L1.22195 16.2191L1.4495 15.4488L0.856934 14.9737L1.58826 14.9755L1.81277 14.2041Z" fill="white"/>
<path d="M5.9739 14.2041L6.19832 14.9756L6.92964 14.9738L6.33703 15.4488L6.56449 16.2192L5.97381 15.7413L5.38309 16.2191L5.61064 15.4488L5.01807 14.9737L5.74939 14.9755L5.9739 14.2041Z" fill="white"/>
<path d="M10.1341 14.2041L10.3585 14.9756L11.0898 14.9738L10.4972 15.4488L10.7246 16.2192L10.134 15.7413L9.54324 16.2191L9.77079 15.4488L9.17822 14.9737L9.90955 14.9755L10.1341 14.2041Z" fill="white"/>
<path d="M14.2942 14.2041L14.5186 14.9756L15.25 14.9738L14.6573 15.4488L14.8848 16.2192L14.2941 15.7413L13.7034 16.2191L13.9309 15.4488L13.3384 14.9737L14.0697 14.9755L14.2942 14.2041Z" fill="white"/>
<path d="M18.4549 14.2041L18.6793 14.9756L19.4106 14.9738L18.818 15.4488L19.0454 16.2192L18.4548 15.7413L17.864 16.2191L18.0916 15.4488L17.499 14.9737L18.2303 14.9755L18.4549 14.2041Z" fill="white"/>
<path d="M22.6155 14.2041L22.8399 14.9756L23.5712 14.9738L22.9786 15.4488L23.2061 16.2192L22.6154 15.7413L22.0247 16.2191L22.2522 15.4488L21.6597 14.9737L22.391 14.9755L22.6155 14.2041Z" fill="white"/>
<path d="M1.81277 18.5889L2.03718 19.3603L2.76851 19.3586L2.1759 19.8336L2.40336 20.6039L1.81268 20.126L1.22195 20.6039L1.4495 19.8335L0.856934 19.3585L1.58826 19.3603L1.81277 18.5889Z" fill="white"/>
<path d="M5.9739 18.5889L6.19832 19.3603L6.92964 19.3586L6.33703 19.8336L6.56449 20.6039L5.97381 20.126L5.38309 20.6039L5.61064 19.8335L5.01807 19.3585L5.74939 19.3603L5.9739 18.5889Z" fill="white"/>
<path d="M10.1341 18.5889L10.3585 19.3603L11.0898 19.3586L10.4972 19.8336L10.7246 20.6039L10.134 20.126L9.54324 20.6039L9.77079 19.8335L9.17822 19.3585L9.90955 19.3603L10.1341 18.5889Z" fill="white"/>
<path d="M14.2942 18.5889L14.5186 19.3603L15.25 19.3586L14.6573 19.8336L14.8848 20.6039L14.2941 20.126L13.7034 20.6039L13.9309 19.8335L13.3384 19.3585L14.0697 19.3603L14.2942 18.5889Z" fill="white"/>
<path d="M18.4549 18.5889L18.6793 19.3603L19.4106 19.3586L18.818 19.8336L19.0454 20.6039L18.4548 20.126L17.864 20.6039L18.0916 19.8335L17.499 19.3585L18.2303 19.3603L18.4549 18.5889Z" fill="white"/>
<path d="M22.6155 18.5889L22.8399 19.3603L23.5712 19.3586L22.9786 19.8336L23.2061 20.6039L22.6154 20.126L22.0247 20.6039L22.2522 19.8335L21.6597 19.3585L22.391 19.3603L22.6155 18.5889Z" fill="white"/>
<path d="M3.78054 3.24268L4.00496 4.01414L4.73628 4.01242L4.14367 4.4874L4.37113 5.25776L3.78045 4.77986L3.18973 5.25769L3.41728 4.48735L2.82471 4.0123L3.55603 4.0141L3.78054 3.24268Z" fill="white"/>
<path d="M7.94167 3.24268L8.16609 4.01414L8.89742 4.01242L8.3048 4.4874L8.53226 5.25776L7.94158 4.77986L7.35086 5.25769L7.57841 4.48735L6.98584 4.0123L7.71717 4.0141L7.94167 3.24268Z" fill="white"/>
<path d="M12.1013 3.24268L12.3258 4.01414L13.0571 4.01242L12.4645 4.4874L12.6919 5.25776L12.1013 4.77986L11.5105 5.25769L11.7381 4.48735L11.1455 4.0123L11.8768 4.0141L12.1013 3.24268Z" fill="white"/>
<path d="M16.2615 3.24268L16.4859 4.01414L17.2172 4.01242L16.6246 4.4874L16.8521 5.25776L16.2614 4.77986L15.6707 5.25769L15.8982 4.48735L15.3057 4.0123L16.037 4.0141L16.2615 3.24268Z" fill="white"/>
<path d="M20.4226 3.24268L20.647 4.01414L21.3784 4.01242L20.7858 4.4874L21.0132 5.25776L20.4225 4.77986L19.8318 5.25769L20.0594 4.48735L19.4668 4.0123L20.1981 4.0141L20.4226 3.24268Z" fill="white"/>
<path d="M3.78054 7.62744L4.00496 8.39891L4.73628 8.39719L4.14367 8.87216L4.37113 9.64253L3.78045 9.16462L3.18973 9.64246L3.41728 8.87211L2.82471 8.39707L3.55603 8.39886L3.78054 7.62744Z" fill="white"/>
<path d="M7.94167 7.62744L8.16609 8.39891L8.89742 8.39719L8.3048 8.87216L8.53226 9.64253L7.94158 9.16462L7.35086 9.64246L7.57841 8.87211L6.98584 8.39707L7.71717 8.39886L7.94167 7.62744Z" fill="white"/>
<path d="M12.1013 7.62744L12.3258 8.39891L13.0571 8.39719L12.4645 8.87216L12.6919 9.64253L12.1013 9.16462L11.5105 9.64246L11.7381 8.87211L11.1455 8.39707L11.8768 8.39886L12.1013 7.62744Z" fill="white"/>
<path d="M16.2615 7.62744L16.4859 8.39891L17.2172 8.39719L16.6246 8.87216L16.8521 9.64253L16.2614 9.16462L15.6707 9.64246L15.8982 8.87211L15.3057 8.39707L16.037 8.39886L16.2615 7.62744Z" fill="white"/>
<path d="M20.4226 7.62744L20.647 8.39891L21.3784 8.39719L20.7858 8.87216L21.0132 9.64253L20.4225 9.16462L19.8318 9.64246L20.0594 8.87211L19.4668 8.39707L20.1981 8.39886L20.4226 7.62744Z" fill="white"/>
<path d="M3.78054 12.0122L4.00496 12.7837L4.73628 12.7819L4.14367 13.2569L4.37113 14.0273L3.78045 13.5494L3.18973 14.0272L3.41728 13.2569L2.82471 12.7818L3.55603 12.7836L3.78054 12.0122Z" fill="white"/>
<path d="M7.94167 12.0122L8.16609 12.7837L8.89742 12.7819L8.3048 13.2569L8.53226 14.0273L7.94158 13.5494L7.35086 14.0272L7.57841 13.2569L6.98584 12.7818L7.71717 12.7836L7.94167 12.0122Z" fill="white"/>
<path d="M12.1013 12.0122L12.3258 12.7837L13.0571 12.7819L12.4645 13.2569L12.6919 14.0273L12.1013 13.5494L11.5105 14.0272L11.7381 13.2569L11.1455 12.7818L11.8768 12.7836L12.1013 12.0122Z" fill="white"/>
<path d="M16.2615 12.0122L16.4859 12.7837L17.2172 12.7819L16.6246 13.2569L16.8521 14.0273L16.2614 13.5494L15.6707 14.0272L15.8982 13.2569L15.3057 12.7818L16.037 12.7836L16.2615 12.0122Z" fill="white"/>
<path d="M20.4226 12.0122L20.647 12.7837L21.3784 12.7819L20.7858 13.2569L21.0132 14.0273L20.4225 13.5494L19.8318 14.0272L20.0594 13.2569L19.4668 12.7818L20.1981 12.7836L20.4226 12.0122Z" fill="white"/>
<path d="M3.78054 16.396L4.00496 17.1675L4.73628 17.1657L4.14367 17.6407L4.37113 18.4111L3.78045 17.9332L3.18973 18.411L3.41728 17.6407L2.82471 17.1656L3.55603 17.1674L3.78054 16.396Z" fill="white"/>
<path d="M7.94167 16.396L8.16609 17.1675L8.89742 17.1657L8.3048 17.6407L8.53226 18.4111L7.94158 17.9332L7.35086 18.411L7.57841 17.6407L6.98584 17.1656L7.71717 17.1674L7.94167 16.396Z" fill="white"/>
<path d="M12.1013 16.396L12.3258 17.1675L13.0571 17.1657L12.4645 17.6407L12.6919 18.4111L12.1013 17.9332L11.5105 18.411L11.7381 17.6407L11.1455 17.1656L11.8768 17.1674L12.1013 16.396Z" fill="white"/>
<path d="M16.2615 16.396L16.4859 17.1675L17.2172 17.1657L16.6246 17.6407L16.8521 18.4111L16.2614 17.9332L15.6707 18.411L15.8982 17.6407L15.3057 17.1656L16.037 17.1674L16.2615 16.396Z" fill="white"/>
<path d="M20.4226 16.396L20.647 17.1675L21.3784 17.1657L20.7858 17.6407L21.0132 18.4111L20.4225 17.9332L19.8318 18.411L20.0594 17.6407L19.4668 17.1656L20.1981 17.1674L20.4226 16.396Z" fill="white"/>
</svg>
